<svg width="51" height="48" viewBox="0 0 51 48" fill="none" xmlns="http://www.w3.org/2000/svg">
<g clip-path="url(#clip0_83_1057)">
<path d="M24.9219 36.1219L36.575 42.2531L34.3531 29.2781L43.7844 20.0906L30.7531 18.1969L24.9219 6.38437V0C25.9906 0 27.0594 0.553125 27.6125 1.66875L33.7344 14.0812L47.4313 16.0687C49.8875 16.425 50.8719 19.4531 49.0906 21.1875L39.1813 30.8438L41.525 44.4844C41.9469 46.9313 39.3688 48.7969 37.175 47.6438L24.9219 41.2125V36.1219Z" fill="#FFC403"/>
</g>
<path d="M25.0782 0C24.0094 0 22.9407 0.553125 22.3875 1.66875L16.2657 14.0812L2.56879 16.0687C0.112545 16.425 -0.87183 19.4531 0.90942 21.1875L10.8188 30.8438L8.47504 44.4844C8.05317 46.9313 10.6313 48.7969 12.825 47.6438L25.0782 41.2125V0Z" fill="#FFC403"/>
<defs>
<clipPath id="clip0_83_1057">
<rect width="25.08" height="48" fill="white" transform="translate(25)"/>
</clipPath>
</defs>
</svg>
