<svg width="51" height="48" viewBox="0 0 51 48" fill="none" xmlns="http://www.w3.org/2000/svg">
<path d="M32.1648 14.8553L32.572 15.6809L33.483 15.8131L47.1799 17.8006L47.18 17.8006C48.199 17.9484 48.6122 19.2108 47.8698 19.9337L47.8693 19.9342L37.9599 29.5904L37.3006 30.2329L37.4565 31.1401L39.8002 44.7807L39.8004 44.7817C39.9742 45.7896 38.9093 46.5723 37.9954 46.098L25.6699 39.4593L24.8291 39.0064L23.9933 39.4685L11.9978 46.1015C11.0854 46.5684 10.0263 45.7871 10.1996 44.7817L10.1998 44.7807L12.5435 31.1401L12.6994 30.2329L12.0401 29.5904L2.13075 19.9342L2.13025 19.9337C1.38783 19.2108 1.80101 17.9484 2.81998 17.8006L2.8201 17.8006L16.517 15.8131L17.428 15.6809L17.8352 14.8553L23.9554 2.4461C23.9557 2.44557 23.9559 2.44504 23.9562 2.44451C24.1884 1.97762 24.615 1.75 25.0782 1.75C25.4346 1.75 25.7647 1.88273 26.0437 2.44441C26.044 2.44497 26.0443 2.44553 26.0446 2.4461L32.1648 14.8553Z" fill="#F2F2F2" stroke="#E0E0E0" stroke-width="3.5"/>
</svg>
