<svg width="51" height="48" viewBox="0 0 51 48" fill="none" xmlns="http://www.w3.org/2000/svg">
<g clip-path="url(#clip0_83_1116)">
<path d="M25.1618 36.1219L36.8149 42.2531L34.5931 29.2781L44.0243 20.0906L30.9931 18.1969L25.1618 6.38437V0C26.2306 0 27.2993 0.553125 27.8524 1.66875L33.9743 14.0812L47.6712 16.0687C50.1274 16.425 51.1118 19.4531 49.3306 21.1875L39.4212 30.8438L41.7649 44.4844C42.1868 46.9313 39.6087 48.7969 37.4149 47.6438L25.1618 41.2125V36.1219Z" fill="#FFC403"/>
</g>
<g clip-path="url(#clip1_83_1116)">
<path d="M25.3182 36.1219L13.665 42.2531L15.8869 29.2781L6.45566 20.0906L19.4869 18.1969L25.3182 6.38437V0C24.2494 0 23.1807 0.553125 22.6275 1.66875L16.5057 14.0812L2.80878 16.0687C0.352535 16.425 -0.63184 19.4531 1.14941 21.1875L11.0588 30.8438L8.71503 44.4844C8.29316 46.9313 10.8713 48.7969 13.065 47.6438L25.3182 41.2125V36.1219Z" fill="#FFC403"/>
</g>
<defs>
<clipPath id="clip0_83_1116">
<rect width="25.08" height="48" fill="white" transform="translate(25.24)"/>
</clipPath>
<clipPath id="clip1_83_1116">
<rect width="25.08" height="48" fill="white" transform="translate(0.23999)"/>
</clipPath>
</defs>
</svg>
