<svg width="51" height="48" viewBox="0 0 51 48" fill="none" xmlns="http://www.w3.org/2000/svg">
<g clip-path="url(#clip0_83_1109)">
<path d="M25.0819 36.1219L36.735 42.2531L34.5131 29.2781L43.9444 20.0906L30.9131 18.1969L25.0819 6.38437V0C26.1506 0 27.2194 0.553125 27.7725 1.66875L33.8944 14.0812L47.5912 16.0687C50.0475 16.425 51.0319 19.4531 49.2506 21.1875L39.3412 30.8438L41.685 44.4844C42.1069 46.9313 39.5287 48.7969 37.335 47.6438L25.0819 41.2125V36.1219Z" fill="#FFC403"/>
</g>
<path d="M25.2382 0C24.1695 0 23.1007 0.553125 22.5476 1.66875L16.4257 14.0812L2.72883 16.0687C0.272579 16.425 -0.711796 19.4531 1.06945 21.1875L10.9788 30.8438L8.63508 44.4844C8.2132 46.9313 10.7913 48.7969 12.9851 47.6438L25.2382 41.2125V0Z" fill="#FFC403"/>
<defs>
<clipPath id="clip0_83_1109">
<rect width="25.08" height="48" fill="white" transform="translate(25.16)"/>
</clipPath>
</defs>
</svg>
