<svg width="51" height="48" viewBox="0 0 51 48" fill="none" xmlns="http://www.w3.org/2000/svg">
<path d="M25.1581 0C24.0894 0 23.0206 0.553125 22.4675 1.66875L16.3456 14.0812L2.64875 16.0687C0.192501 16.425 -0.791874 19.4531 0.989376 21.1875L10.8988 30.8438L8.555 44.4844C8.13313 46.9313 10.7113 48.7969 12.905 47.6438L25.1581 41.2125V0Z" fill="#FFC403"/>
<path d="M25.0018 0C26.0705 0 27.1393 0.553125 27.6924 1.66875L33.8143 14.0812L47.5112 16.0687C49.9674 16.425 50.9518 19.4531 49.1705 21.1875L39.2612 30.8438L41.6049 44.4844C42.0268 46.9313 39.4487 48.7969 37.2549 47.6438L25.0018 41.2125V0Z" fill="#FFC403"/>
</svg>
