<svg width="51" height="48" viewBox="0 0 51 48" fill="none" xmlns="http://www.w3.org/2000/svg">
<g clip-path="url(#clip0_83_1135)">
<path d="M25.2419 36.1219L36.895 42.2531L34.6731 29.2781L44.1044 20.0906L31.0731 18.1969L25.2419 6.38437V0C26.3106 0 27.3794 0.553125 27.9325 1.66875L34.0544 14.0812L47.7513 16.0687C50.2075 16.425 51.1919 19.4531 49.4106 21.1875L39.5013 30.8438L41.845 44.4844C42.2669 46.9313 39.6888 48.7969 37.495 47.6438L25.2419 41.2125V36.1219Z" fill="#FFC403"/>
</g>
<path d="M25.3982 0C24.3295 0 23.2607 0.553125 22.7076 1.66875L16.5857 14.0812L2.88886 16.0687C0.432613 16.425 -0.551762 19.4531 1.22949 21.1875L11.1389 30.8438L8.79511 44.4844C8.37324 46.9313 10.9514 48.7969 13.1451 47.6438L25.3982 41.2125V0Z" fill="#FFC403"/>
<defs>
<clipPath id="clip0_83_1135">
<rect width="25.08" height="48" fill="white" transform="translate(25.3201)"/>
</clipPath>
</defs>
</svg>
