<svg width="51" height="48" viewBox="0 0 51 48" fill="none" xmlns="http://www.w3.org/2000/svg">
<path d="M25.3184 0C24.2497 0 23.1809 0.553125 22.6278 1.66875L16.5059 14.0812L2.80903 16.0687C0.352779 16.425 -0.631596 19.4531 1.14965 21.1875L11.059 30.8438L8.71528 44.4844C8.2934 46.9313 10.8715 48.7969 13.0653 47.6438L25.3184 41.2125V0Z" fill="#FFC403"/>
<path d="M25.1621 0C26.2308 0 27.2996 0.553125 27.8527 1.66875L33.9746 14.0812L47.6714 16.0687C50.1277 16.425 51.1121 19.4531 49.3308 21.1875L39.4214 30.8438L41.7652 44.4844C42.1871 46.9313 39.6089 48.7969 37.4152 47.6438L25.1621 41.2125V0Z" fill="#FFC403"/>
</svg>
