<svg width="51" height="48" viewBox="0 0 51 48" fill="none" xmlns="http://www.w3.org/2000/svg">
<g clip-path="url(#clip0_167_84)">
<path d="M25.2417 36.1219L36.8948 42.2531L34.6729 29.2781L44.1042 20.0906L31.0729 18.1969L25.2417 6.38437V0C26.3104 0 27.3792 0.553125 27.9323 1.66875L34.0542 14.0812L47.751 16.0687C50.2073 16.425 51.1917 19.4531 49.4104 21.1875L39.501 30.8438L41.8448 44.4844C42.2667 46.9313 39.6885 48.7969 37.4948 47.6438L25.2417 41.2125V36.1219Z" fill="#FFC403"/>
</g>
<g clip-path="url(#clip1_167_84)">
<path d="M25.398 36.1219L13.7449 42.2531L15.9667 29.2781L6.53549 20.0906L19.5667 18.1969L25.398 6.38437V0C24.3292 0 23.2605 0.553125 22.7074 1.66875L16.5855 14.0812L2.88862 16.0687C0.432369 16.425 -0.552006 19.4531 1.22924 21.1875L11.1386 30.8438L8.79487 44.4844C8.37299 46.9313 10.9511 48.7969 13.1449 47.6438L25.398 41.2125V36.1219Z" fill="#FFC403"/>
</g>
<defs>
<clipPath id="clip0_167_84">
<rect width="25.08" height="48" fill="white" transform="translate(25.3198)"/>
</clipPath>
<clipPath id="clip1_167_84">
<rect width="25.08" height="48" fill="white" transform="translate(0.319824)"/>
</clipPath>
</defs>
</svg>
