<svg width="51" height="48" viewBox="0 0 51 48" fill="none" xmlns="http://www.w3.org/2000/svg">
<path d="M25.2383 0C24.1696 0 23.1008 0.553125 22.5477 1.66875L16.4258 14.0812L2.72895 16.0687C0.272701 16.425 -0.711674 19.4531 1.06958 21.1875L10.979 30.8438L8.6352 44.4844C8.21333 46.9313 10.7915 48.7969 12.9852 47.6438L25.2383 41.2125V0Z" fill="#FFC403"/>
<path d="M25.082 0C26.1507 0 27.2195 0.553125 27.7726 1.66875L33.8945 14.0812L47.5914 16.0687C50.0476 16.425 51.032 19.4531 49.2507 21.1875L39.3414 30.8438L41.6851 44.4844C42.107 46.9313 39.5289 48.7969 37.3351 47.6438L25.082 41.2125V0Z" fill="#FFC403"/>
</svg>
