<svg width="51" height="48" viewBox="0 0 51 48" fill="none" xmlns="http://www.w3.org/2000/svg">
<path d="M25.2381 0C24.1693 0 23.1006 0.553125 22.5475 1.66875L16.4256 14.0812L2.72871 16.0687C0.272457 16.425 -0.711918 19.4531 1.06933 21.1875L10.9787 30.8438L8.63496 44.4844C8.21308 46.9313 10.7912 48.7969 12.985 47.6438L25.2381 41.2125V0Z" fill="#FFC403"/>
<path d="M25.0817 0C26.1505 0 27.2192 0.553125 27.7724 1.66875L33.8942 14.0812L47.5911 16.0687C50.0474 16.425 51.0317 19.4531 49.2505 21.1875L39.3411 30.8438L41.6849 44.4844C42.1067 46.9313 39.5286 48.7969 37.3349 47.6438L25.0817 41.2125V0Z" fill="#FFC403"/>
</svg>
