<svg width="51" height="48" viewBox="0 0 51 48" fill="none" xmlns="http://www.w3.org/2000/svg">
<path d="M25.1582 0C24.0895 0 23.0207 0.553125 22.4676 1.66875L16.3457 14.0812L2.64887 16.0687C0.192623 16.425 -0.791752 19.4531 0.989498 21.1875L10.8989 30.8438L8.55512 44.4844C8.13325 46.9313 10.7114 48.7969 12.9051 47.6438L25.1582 41.2125V0Z" fill="#FFC403"/>
<path d="M25.0019 0C26.0707 0 27.1394 0.553125 27.6925 1.66875L33.8144 14.0812L47.5113 16.0687C49.9675 16.425 50.9519 19.4531 49.1707 21.1875L39.2613 30.8438L41.605 44.4844C42.0269 46.9313 39.4488 48.7969 37.255 47.6438L25.0019 41.2125V0Z" fill="#FFC403"/>
</svg>
