<svg width="67" height="67" viewBox="0 0 67 67" fill="none" xmlns="http://www.w3.org/2000/svg">
<path d="M13.8037 52.4538H51.6313M37.6849 17.9728L24.3974 34.1863C24.1502 34.4741 24.0039 34.8241 23.9877 35.167L23.6511 42.2715C23.6133 43.0706 24.7294 44.0731 25.5394 43.8854L32.7406 42.2166C33.0882 42.1361 33.4183 41.9316 33.6655 41.6439L47.5508 24.7009M37.6849 17.9728L42.3633 12.2642C43.4515 10.9976 45.2065 10.6618 46.283 11.5143L51.6526 15.8849C52.7291 16.7373 52.7196 18.4552 51.6313 19.7218L47.5508 24.7009M37.6849 17.9728C38.7894 20.7085 42.3089 25.8841 47.5508 24.7009" stroke="#3E3E3E" stroke-width="4.14108" stroke-linecap="round"/>
</svg>
